<?xml version="1.0" encoding="utf-8"?>
<!-- Generator: Adobe Illustrator 23.0.1, SVG Export Plug-In . SVG Version: 6.00 Build 0)  -->
<svg version="1.1" id="레이어_1" xmlns="http://www.w3.org/2000/svg" xmlns:xlink="http://www.w3.org/1999/xlink" x="0px"
	 y="0px" viewBox="0 0 841.9 595.3" style="enable-background:new 0 0 841.9 595.3;" xml:space="preserve">
<style type="text/css">
	.st0{fill:#222222;}
	.st1{fill:none;stroke:#222222;stroke-width:20;stroke-miterlimit:10;}
</style>
<g>
	<path class="st0" d="M345.6,128.5L345.6,128.5c30.9,17.9,41.6,57.4,23.7,88.4L244.8,432.5c-17.9,30.9-57.4,41.6-88.4,23.7l0,0
		c-30.9-17.9-41.6-57.4-23.7-88.4l124.5-215.6C275.1,121.2,314.7,110.6,345.6,128.5z"/>
	<path class="st0" d="M565.3,139.1L565.3,139.1c30.9,17.9,41.6,57.4,23.7,88.4L464.5,443.1c-17.9,30.9-57.4,41.6-88.4,23.7l0,0
		c-30.9-17.9-41.6-57.4-23.7-88.4l124.5-215.6C494.8,131.8,534.3,121.2,565.3,139.1z"/>
	<path class="st1" d="M686.6,349.9L686.6,349.9c29.8,17.2,40.1,55.4,22.8,85.2l0,0c-17.2,29.8-55.4,40.1-85.2,22.8l0,0
		c-29.8-17.2-40.1-55.4-22.8-85.2l0,0C618.7,342.9,656.8,332.6,686.6,349.9z"/>
</g>
</svg>
